<!-- File: public/google-icon.svg -->
<svg xmlns="http://www.w3.org/2000/svg" width="46" height="46" viewBox="0 0 48 48">
  <path fill="#4285f4" d="M24 9.5c3.5 0 6.6 1.3 9 3.4l6.7-6.7C35.4 2.3 30.1 0 24 0 14.6 0 6.6 5.9 2.9 14.1l7.8 6c2-6.1 7.8-10.6 13.3-10.6z"></path>
  <path fill="#34a853" d="M46.1 24.5c0-1.7-.1-2.9-.4-4.2H24v8h12.8c-.6 3.1-2.6 5.6-5.4 7.3l8.3 6.4c4.9-4.5 6.4-11.1 6.4-17.5z"></path>
  <path fill="#fbbc05" d="M10.7 28.3c-.5-1.4-.8-2.9-.8-4.3s.3-3 .8-4.3l-7.8-6C1.1 17.5 0 20.7 0 24s1.1 6.5 2.9 9.3l7.8-6z"></path>
  <path fill="#ea4335" d="M24 48c6.5 0 12-2.1 16-5.6l-8.3-6.4c-2.3 1.5-5.3 2.4-7.7 2.4-5.6 0-11.3-4.5-13.3-10.6l-7.8 6C6.6 42.1 14.6 48 24 48z"></path>
</svg>
